<?xml version="1.0" encoding="utf-8"?>
<!-- Generator: Adobe Illustrator 23.0.3, SVG Export Plug-In . SVG Version: 6.00 Build 0)  -->
<svg version="1.1" id="logosvg.com" xmlns="http://www.w3.org/2000/svg" xmlns:xlink="http://www.w3.org/1999/xlink" x="0px"
	 y="0px" viewBox="0 0 400 300" style="enable-background:new 0 0 400 300;" xml:space="preserve">
<style type="text/css">
	.st0{fill:#FF0000;}
</style>
<path id="logosvg.com_1_" class="st0" d="M62.2,119.7c-25.8,0-46.7,13.6-46.7,30.4c0,16.8,20.9,30.4,46.7,30.4s46.7-13.6,46.7-30.4
	C108.9,133.3,88,119.7,62.2,119.7z M62.2,123.3c15.1,0,27.3,4.4,27.3,9.8c0,4-6.8,7.5-16.5,9l0,0c-1.6-10.5-5.8-18.1-10.8-18.1
	c-5,0-9.2,7.6-10.8,18.1l0,0c-9.7-1.5-16.5-5-16.5-9C34.9,127.7,47.1,123.3,62.2,123.3z M68.6,142.7c-2.1,0.2-4.2,0.3-6.5,0.3
	s-4.4-0.1-6.5-0.3c1-6.8,3.5-11.5,6.5-11.5S67.6,135.9,68.6,142.7z M59.1,177.4C38.2,176.4,21.7,164,21.7,149c0-5.1,1.9-9.9,5.2-14
	l0-0.1c0.3,6.9,10.1,12.8,23.7,14.9c0,0.5,0,0.9,0,1.4C50.7,163.8,54.3,174.4,59.1,177.4L59.1,177.4z M62.2,168
	c-3.7,0-6.8-7.8-7-17.6c2.3,0.2,4.6,0.3,7,0.3c2.4,0,4.7-0.1,7-0.3C69,160.2,65.9,168,62.2,168z M65.2,177.4L65.2,177.4
	c4.8-3.1,8.4-13.6,8.4-26.2c0-0.5,0-0.9,0-1.4c13.6-2.1,23.5-8,23.7-14.9l0,0.1c3.3,4.1,5.2,8.9,5.2,14
	C102.6,164,86.1,176.4,65.2,177.4z M277.1,126.9c-12.8,0-23.3,10.4-23.3,23.3s10.4,23.3,23.3,23.3c12.9,0,23.3-10.4,23.3-23.3
	C300.4,137.3,290,126.9,277.1,126.9z M277.1,164.9c-7.2,0-13-6.6-13-14.7c0-8.1,5.8-14.7,13-14.7c7.2,0,13,6.6,13,14.7
	C290.1,158.3,284.3,164.9,277.1,164.9z M340.5,136.5h-13.6h0v0v35.8H317v-35.8h-13.7v-8.1h37.2V136.5z M367.4,128.5h-6.1h-6.1
	l-18.1,43.9h11.4l3.8-9.9l0,0h9h9l0,0l3.8,9.9h11.4L367.4,128.5z M355.1,155.1l6.1-16.1h0.1l6.1,16.1h-6.2H355.1z M122.6,128.5h37.2
	v8.1h-13.6h0v0v35.8h-9.8v-35.8h-13.7V128.5z M185.5,126.9c-12.9,0-23.3,10.4-23.3,23.3s10.4,23.3,23.3,23.3
	c12.8,0,23.3-10.4,23.3-23.3C208.8,137.3,198.4,126.9,185.5,126.9z M185.5,164.9c-7.2,0-13-6.6-13-14.7c0-8.1,5.8-14.7,13-14.7
	c7.2,0,13,6.6,13,14.7C198.5,158.3,192.7,164.9,185.5,164.9z M242,128.5h11.4l-17.1,27.2v0.2v16.5h-5v0h-5v-16.5v-0.2l-17.1-27.2
	h11.4l10.6,18.4L242,128.5z"/>
</svg>
